<?xml version="1.0" encoding="UTF-8" standalone="no"?>
<!-- Created with Inkscape (http://www.inkscape.org/) -->

<svg
   width="1000"
   height="1000"
   viewBox="0 0 264.58333 264.58333"
   version="1.1"
   id="svg1"
   inkscape:version="1.4 (86a8ad7, 2024-10-11)"
   sodipodi:docname="logo_work.svg"
   xmlns:inkscape="http://www.inkscape.org/namespaces/inkscape"
   xmlns:sodipodi="http://sodipodi.sourceforge.net/DTD/sodipodi-0.dtd"
   xmlns="http://www.w3.org/2000/svg"
   xmlns:svg="http://www.w3.org/2000/svg"
   xmlns:rdf="http://www.w3.org/1999/02/22-rdf-syntax-ns#"
   xmlns:cc="http://creativecommons.org/ns#"
   xmlns:dc="http://purl.org/dc/elements/1.1/">
  <title
     id="title1">logo</title>
  <sodipodi:namedview
     id="namedview1"
     pagecolor="#ffffff"
     bordercolor="#000000"
     borderopacity="0.25"
     inkscape:showpageshadow="2"
     inkscape:pageopacity="0.0"
     inkscape:pagecheckerboard="true"
     inkscape:deskcolor="#d1d1d1"
     inkscape:document-units="px"
     labelstyle="below"
     inkscape:lockguides="true"
     showgrid="true"
     inkscape:clip-to-page="true"
     inkscape:zoom="0.63785073"
     inkscape:cx="493.84595"
     inkscape:cy="506.38807"
     inkscape:window-width="1536"
     inkscape:window-height="953"
     inkscape:window-x="-8"
     inkscape:window-y="-8"
     inkscape:window-maximized="1"
     inkscape:current-layer="layer1">
    <inkscape:grid
       id="grid1"
       units="px"
       originx="0"
       originy="0"
       spacingx="0.26458333"
       spacingy="0.26458333"
       empcolor="#0099e5"
       empopacity="0.30196078"
       color="#0099e5"
       opacity="0.14901961"
       empspacing="10"
       enabled="true"
       visible="true" />
  </sodipodi:namedview>
  <defs
     id="defs1" />
  <g
     inkscape:label="layer1"
     inkscape:groupmode="layer"
     id="layer1"
     style="display:inline">
    <path
       style="fill:#d09e24;fill-opacity:1;fill-rule:evenodd;stroke:none;stroke-width:100;stroke-linecap:round;stroke-linejoin:round;stroke-miterlimit:10;stroke-dasharray:none;stroke-opacity:1"
       d="m 986.10882,404.58746 c -33.04693,4.69282 -59.52357,26.74851 -88.45413,41.56226 -94.79887,54.80036 -190.19535,108.63695 -283.88085,165.31841 -37.8841,25.08628 -54.41596,77.08066 -37.13554,119.23421 12.54163,33.99011 44.83786,57.08955 79.71935,63.97688 106.89286,29.10248 213.81483,58.24893 320.97804,86.25805 47.99591,11.73321 101.31591,-18.50964 115.90111,-65.71295 9.4359,-29.3314 4.0236,-60.72215 5.6008,-91.0116 -0.1392,-75.87888 1.2088,-151.8038 -0.2775,-227.65539 -2.7262,-47.99091 -44.2621,-89.89007 -92.3959,-92.27916 -6.653,-0.98314 -13.37126,0.21204 -20.05538,0.30929 z"
       id="path5"
       inkscape:label="fill1"
       transform="scale(0.26458333)" />
    <path
       style="fill:#0f3c50;fill-opacity:1;fill-rule:evenodd;stroke:none;stroke-width:100;stroke-linecap:round;stroke-linejoin:round;stroke-miterlimit:10;stroke-dasharray:none;stroke-opacity:1"
       d="m -4.7890319,521.72889 c -43.4370021,3.09971 -81.8241641,37.09473 -90.4826441,79.70267 -6.160824,34.80726 -2.823557,70.4749 -3.894187,105.65185 0.332026,87.12695 -1.058407,174.31163 1.570045,261.39975 3.187996,46.48054 42.265511,87.45024 88.9052783,91.41614 30.3478767,4.5556 58.7134147,-9.8037 83.7124657,-25.3423 C 202.04944,961.19086 329.20873,888.0136 455.21525,812.9106 494.5419,788.02782 511.76627,734.40072 493.48892,691.47336 480.82753,658.53103 449.52348,635.97171 415.53291,628.9989 285.05807,593.3476 153.8078,558.05563 23.487136,523.56258 14.246259,521.79682 4.6026323,521.17205 -4.7890319,521.72889 Z"
       id="path4"
       inkscape:label="fill2"
       transform="scale(0.26458333)" />
    <path
       style="fill:#0f3c50;fill-opacity:1;fill-rule:evenodd;stroke:none;stroke-width:100;stroke-linecap:round;stroke-linejoin:round;stroke-miterlimit:10;stroke-dasharray:none;stroke-opacity:1"
       d="m 989.54138,-60.055808 c -35.37853,3.009464 -63.34445,27.019878 -93.81628,42.710162 -112.25902,65.13391 -225.30849,128.940086 -336.66873,195.603166 -31.62099,17.48588 -56.37672,49.36628 -58.41952,86.26962 -4.13545,45.87199 27.62501,91.28716 71.93281,103.60601 134.48122,36.05264 268.7744,72.93388 403.40274,108.3732 47.6587,11.9967 101.1406,-17.24877 116.3228,-64.04844 10.2645,-28.94897 5.2305,-60.31005 6.8508,-90.39538 0.046,-94.29477 1.3299,-188.6292 -0.9614,-282.899514 -0.9126,-43.2013339 -31.1533,-84.373703 -73.3298,-95.530844 -11.4409,-3.39058 -23.4303,-4.155947 -35.31342,-3.68798 z"
       id="path3"
       transform="scale(0.26458333)"
       inkscape:label="fill3" />
    <path
       style="fill:#d09e24;fill-opacity:1;fill-rule:evenodd;stroke:none;stroke-width:100;stroke-linecap:round;stroke-linejoin:round;stroke-miterlimit:10;stroke-dasharray:none;stroke-opacity:1"
       d="m -6.2526874,117.39558 c -42.4745896,3.75054 -79.7445196,36.74868 -88.8910466,78.35457 -6.554656,36.00296 -2.910806,72.9181 -4.04921,109.31483 0.346231,66.63006 -0.812906,133.32174 0.585348,199.91232 2.557722,48.81288 46.063142,90.67374 94.8571216,91.8933 C 29.310645,599.62529 57.448645,580.02578 84.779298,564.42613 185.36665,506.28753 286.29426,448.67474 385.79719,388.70373 424.32268,363.51113 440.87599,310.54301 422.824,268.08574 410.032,234.74867 378.16683,212.18431 343.79064,205.29759 236.67398,176.05668 129.46435,146.97429 22.080768,118.83204 12.656798,117.19587 3.2894199,116.80197 -6.2526874,117.39558 Z"
       id="path6"
       inkscape:label="fill4"
       transform="scale(0.26458333)" />
    <path
       style="fill:none;fill-rule:evenodd;stroke:#d09e24;stroke-width:26.4583;stroke-linecap:round;stroke-linejoin:round;stroke-miterlimit:10;stroke-dasharray:none;stroke-opacity:1"
       d="M 277.81251,224.89586 -13.22918,146.67651"
       id="path2"
       inkscape:label="line1" />
    <path
       style="fill:none;fill-rule:evenodd;stroke:#0f3c50;stroke-width:26.4583;stroke-linecap:round;stroke-linejoin:round;stroke-miterlimit:10;stroke-dasharray:none;stroke-opacity:1"
       d="M -13.22918,277.8125 277.81251,109.66369"
       id="path1"
       inkscape:label="line2" />
    <path
       style="fill:none;fill-rule:evenodd;stroke:#0f3c50;stroke-width:26.4583;stroke-linecap:round;stroke-linejoin:round;stroke-miterlimit:10;stroke-dasharray:none;stroke-opacity:1"
       d="M 277.81251,117.90684 -13.229181,39.687483"
       id="path2-5"
       inkscape:label="line3" />
    <path
       style="fill:none;fill-rule:evenodd;stroke:#d09e24;stroke-width:26.4583;stroke-linecap:round;stroke-linejoin:round;stroke-miterlimit:10;stroke-dasharray:none;stroke-opacity:1"
       d="M -13.229178,154.91963 277.81251,-13.229183"
       id="path1-8"
       inkscape:label="line4" />
    <rect
       style="display:none;fill:none;fill-rule:evenodd;stroke:#000000;stroke-width:26.4583;stroke-linecap:round;stroke-linejoin:round;stroke-miterlimit:10;stroke-dasharray:none;stroke-opacity:1"
       id="rect2"
       width="264.58337"
       height="264.58337"
       x="-2.2011718e-05"
       y="-2.2011718e-05"
       inkscape:label="rect1" />
    <ellipse
       style="display:none;fill:none;fill-opacity:1;fill-rule:evenodd;stroke:#000000;stroke-width:26.4583;stroke-linecap:round;stroke-linejoin:round;stroke-miterlimit:10;stroke-dasharray:none;stroke-opacity:1"
       id="path7"
       cx="132.29167"
       cy="132.29167"
       rx="132.29169"
       ry="132.07144"
       inkscape:label="cir1" />
  </g>
  <metadata
     id="metadata1">
    <rdf:RDF>
      <cc:Work
         rdf:about="">
        <dc:title>logo</dc:title>
        <dc:creator>
          <cc:Agent>
            <dc:title>yuito723</dc:title>
          </cc:Agent>
        </dc:creator>
      </cc:Work>
    </rdf:RDF>
  </metadata>
</svg>
