<?xml version="1.0" encoding="UTF-8" standalone="no"?>
<!-- Created with Inkscape (http://www.inkscape.org/) -->

<svg
   width="1000"
   height="1000"
   viewBox="0 0 264.58333 264.58333"
   version="1.1"
   id="svg1"
   inkscape:version="1.4 (86a8ad7, 2024-10-11)"
   sodipodi:docname="logo_square.svg"
   xmlns:inkscape="http://www.inkscape.org/namespaces/inkscape"
   xmlns:sodipodi="http://sodipodi.sourceforge.net/DTD/sodipodi-0.dtd"
   xmlns="http://www.w3.org/2000/svg"
   xmlns:svg="http://www.w3.org/2000/svg"
   xmlns:rdf="http://www.w3.org/1999/02/22-rdf-syntax-ns#"
   xmlns:cc="http://creativecommons.org/ns#"
   xmlns:dc="http://purl.org/dc/elements/1.1/">
  <title
     id="title1">logo</title>
  <sodipodi:namedview
     id="namedview1"
     pagecolor="#ffffff"
     bordercolor="#000000"
     borderopacity="0.25"
     inkscape:showpageshadow="2"
     inkscape:pageopacity="0.0"
     inkscape:pagecheckerboard="true"
     inkscape:deskcolor="#d1d1d1"
     inkscape:document-units="px"
     labelstyle="below"
     inkscape:lockguides="true"
     showgrid="true"
     inkscape:clip-to-page="true"
     inkscape:zoom="0.63785073"
     inkscape:cx="493.06207"
     inkscape:cy="506.38807"
     inkscape:window-width="1536"
     inkscape:window-height="953"
     inkscape:window-x="-8"
     inkscape:window-y="-8"
     inkscape:window-maximized="1"
     inkscape:current-layer="layer1">
    <inkscape:grid
       id="grid1"
       units="px"
       originx="0"
       originy="0"
       spacingx="0.26458333"
       spacingy="0.26458333"
       empcolor="#0099e5"
       empopacity="0.30196078"
       color="#0099e5"
       opacity="0.14901961"
       empspacing="10"
       enabled="true"
       visible="true" />
  </sodipodi:namedview>
  <defs
     id="defs1">
    <pattern
       patternUnits="userSpaceOnUse"
       width="1200"
       height="1199.9999"
       patternTransform="translate(-99.999992,-99.999999)"
       preserveAspectRatio="xMidYMid"
       id="pattern1"
       inkscape:label="fill1">
      <path
         style="fill:#d09e24;fill-opacity:1;fill-rule:evenodd;stroke:none;stroke-width:100;stroke-linecap:round;stroke-linejoin:round;stroke-miterlimit:10;stroke-dasharray:none;stroke-opacity:1"
         d="m 1086.1088,504.58746 c -33.0469,4.69282 -59.5236,26.74851 -88.45412,41.56226 -94.79887,54.80036 -190.19535,108.63695 -283.88085,165.31841 -37.8841,25.08628 -54.41596,77.08066 -37.13554,119.23421 12.54163,33.99011 44.83786,57.08955 79.71935,63.97688 106.89286,29.10248 213.81483,58.24893 320.97806,86.25805 47.9959,11.73321 101.3159,-18.50964 115.9011,-65.71295 9.4359,-29.3314 4.0236,-60.72215 5.6008,-91.0116 -0.1392,-75.87888 1.2088,-151.8038 -0.2775,-227.65539 -2.7262,-47.99091 -44.2621,-89.89007 -92.3959,-92.27916 -6.653,-0.98314 -13.3713,0.21204 -20.0554,0.30929 z"
         id="path5"
         inkscape:label="fill1" />
      <path
         style="fill:#0f3c50;fill-opacity:1;fill-rule:evenodd;stroke:none;stroke-width:100;stroke-linecap:round;stroke-linejoin:round;stroke-miterlimit:10;stroke-dasharray:none;stroke-opacity:1"
         d="m 95.21096,621.72889 c -43.437002,3.09971 -81.824164,37.09473 -90.4826442,79.70267 -6.160824,34.80726 -2.823557,70.4749 -3.89418705,105.65185 0.33202605,87.12695 -1.058407,174.31163 1.57004505,261.39979 3.187996,46.4805 42.2655112,87.4502 88.9052782,91.4161 30.347878,4.5556 58.713418,-9.8037 83.712468,-25.3423 127.02751,-73.3661 254.1868,-146.5434 380.19332,-221.6464 39.32665,-24.88278 56.55102,-78.50988 38.27367,-121.43724 C 580.82752,758.53103 549.52347,735.97171 515.5329,728.9989 385.05806,693.3476 253.80779,658.05563 123.48713,623.56258 c -9.24088,-1.76576 -18.88451,-2.39053 -28.27617,-1.83369 z"
         id="path4"
         inkscape:label="fill2" />
      <path
         style="fill:#0f3c50;fill-opacity:1;fill-rule:evenodd;stroke:none;stroke-width:100;stroke-linecap:round;stroke-linejoin:round;stroke-miterlimit:10;stroke-dasharray:none;stroke-opacity:1"
         d="m 1089.5414,39.944191 c -35.3786,3.009464 -63.3445,27.019878 -93.81631,42.710162 C 883.46607,147.78826 770.4166,211.59444 659.05636,278.25752 c -31.62099,17.48588 -56.37672,49.36628 -58.41952,86.26962 -4.13545,45.87199 27.62501,91.28716 71.93281,103.60601 134.48122,36.05264 268.7744,72.93388 403.40275,108.3732 47.6587,11.9967 101.1406,-17.24877 116.3228,-64.04844 10.2645,-28.94897 5.2305,-60.31005 6.8508,-90.39538 0.046,-94.29477 1.3299,-188.6292 -0.9614,-282.89951 -0.9126,-43.201339 -31.1533,-84.373708 -73.3298,-95.530849 -11.4409,-3.39058 -23.4303,-4.155947 -35.3134,-3.68798 z"
         id="path3"
         inkscape:label="fill3" />
      <path
         style="fill:#d09e24;fill-opacity:1;fill-rule:evenodd;stroke:none;stroke-width:100;stroke-linecap:round;stroke-linejoin:round;stroke-miterlimit:10;stroke-dasharray:none;stroke-opacity:1"
         d="m 93.747304,217.39558 c -42.474589,3.75054 -79.744519,36.74868 -88.8910462,78.35457 -6.554656,36.00296 -2.910806,72.9181 -4.04921005,109.31483 0.34623105,66.63006 -0.812906,133.32174 0.58534805,199.91232 2.557722,48.81288 46.0631422,90.67374 94.8571212,91.8933 33.061123,2.75469 61.199123,-16.84482 88.529773,-32.44447 100.58735,-58.1386 201.51496,-115.75139 301.01789,-175.7224 38.52549,-25.1926 55.0788,-78.16072 37.02681,-120.61799 -12.792,-33.33707 -44.65717,-55.90143 -79.03336,-62.78815 -107.11666,-29.24091 -214.32629,-58.3233 -321.70987,-86.46555 -9.42397,-1.63617 -18.79135,-2.03007 -28.333456,-1.43646 z"
         id="path6"
         inkscape:label="fill4" />
      <path
         style="fill:none;fill-rule:evenodd;stroke:#d09e24;stroke-width:99.9999;stroke-linecap:round;stroke-linejoin:round;stroke-miterlimit:10;stroke-dasharray:none;stroke-opacity:1"
         d="M 1150,950.00011 49.999941,654.36792"
         id="path2"
         inkscape:label="line1" />
      <path
         style="fill:none;fill-rule:evenodd;stroke:#0f3c50;stroke-width:99.9999;stroke-linecap:round;stroke-linejoin:round;stroke-miterlimit:10;stroke-dasharray:none;stroke-opacity:1"
         d="M 49.999941,1150 1150,514.47694"
         id="path1"
         inkscape:label="line2" />
      <path
         style="fill:none;fill-rule:evenodd;stroke:#0f3c50;stroke-width:99.9999;stroke-linecap:round;stroke-linejoin:round;stroke-miterlimit:10;stroke-dasharray:none;stroke-opacity:1"
         d="M 1150,545.63216 49.999937,249.99994"
         id="path2-5"
         inkscape:label="line3" />
      <path
         style="fill:none;fill-rule:evenodd;stroke:#d09e24;stroke-width:99.9999;stroke-linecap:round;stroke-linejoin:round;stroke-miterlimit:10;stroke-dasharray:none;stroke-opacity:1"
         d="M 49.999948,685.52302 1150,49.999937"
         id="path1-8"
         inkscape:label="line4" />
    </pattern>
  </defs>
  <g
     inkscape:label="layer1"
     inkscape:groupmode="layer"
     id="layer1"
     style="display:inline">
    <path
       id="rect1"
       style="stroke:none;fill:url(#pattern1)"
       inkscape:label="pattern1"
       d="M 0 0 L 0 1000 L 1000 1000 L 1000 0 L 0 0 z "
       transform="scale(0.26458333)" />
    <ellipse
       style="display:none;fill:none;fill-opacity:1;fill-rule:evenodd;stroke:#000000;stroke-width:26.4583;stroke-linecap:round;stroke-linejoin:round;stroke-miterlimit:10;stroke-dasharray:none;stroke-opacity:1"
       id="path7"
       cx="132.29167"
       cy="132.29167"
       rx="132.29169"
       ry="132.07144"
       inkscape:label="cir1" />
  </g>
  <metadata
     id="metadata1">
    <rdf:RDF>
      <cc:Work
         rdf:about="">
        <dc:title>logo</dc:title>
        <dc:creator>
          <cc:Agent>
            <dc:title>yuito723</dc:title>
          </cc:Agent>
        </dc:creator>
      </cc:Work>
    </rdf:RDF>
  </metadata>
</svg>
